<?xml version="1.0" encoding="UTF-8"?>
<!DOCTYPE svg PUBLIC "-//W3C//DTD SVG 1.1//EN" "http://www.w3.org/Graphics/SVG/1.1/DTD/svg11.dtd">
<!-- Creator: CorelDRAW X7 -->
<svg xmlns="http://www.w3.org/2000/svg" xml:space="preserve" width="1000px" height="1000px" version="1.1" style="shape-rendering:geometricPrecision; text-rendering:geometricPrecision; image-rendering:optimizeQuality; fill-rule:evenodd; clip-rule:evenodd"
viewBox="0 0 1000 1000"
 xmlns:xlink="http://www.w3.org/1999/xlink">
 <defs>
  <style type="text/css">
   <![CDATA[
    .fil3 {fill:#031C36}
    .fil0 {fill:#052A4F}
    .fil2 {fill:#D1AA0C}
    .fil4 {fill:#F1C40F}
    .fil1 {fill:#FEFEFE}
    .fil5 {fill:#052A4F;fill-rule:nonzero}
   ]]>
  </style>
 </defs>
 <g id="Capa_x0020_1">
  <metadata id="CorelCorpID_0Corel-Layer"/>
  <g id="_1958492603152">
   <path class="fil0" d="M9 479l470 -470c12,-12 30,-12 42,0l470 470c12,11 12,30 0,42l-470 470c-12,11 -30,11 -42,0l-470 -470c-12,-12 -12,-31 0,-42z"/>
   <path class="fil1" d="M500 209c161,0 291,130 291,291 0,161 -130,291 -291,291 -161,0 -291,-130 -291,-291 0,-161 130,-291 291,-291z"/>
   <path class="fil2" d="M322 678c17,2 61,-3 79,-6 74,-13 137,-46 187,-94 41,-40 73,-89 94,-146 9,-26 15,-52 16,-78 -3,7 -8,16 -15,25 -10,15 -24,30 -35,36 13,-2 19,-4 26,-8 -29,75 -67,127 -113,165 -64,53 -143,81 -239,106z"/>
   <g>
    <path class="fil3" d="M329 544l49 -9c7,-1 13,4 13,11l0 114 -75 15 0 -114c0,-8 6,-15 13,-17z"/>
    <path class="fil3" d="M418 468l49 -9c7,-1 14,4 14,12l0 173 -76 14 0 -173c0,-8 6,-15 13,-17z"/>
    <path class="fil3" d="M507 474l49 -9c8,-1 14,4 14,11l0 150 -76 15 0 -150c0,-8 6,-15 13,-17z"/>
    <path class="fil3" d="M597 368l48 -10c8,-1 14,4 14,12l0 239 -76 15 0 -240c0,-7 6,-15 14,-16z"/>
   </g>
   <g>
    <path class="fil0" d="M322 550l49 -10c7,-1 13,4 13,12l0 113 -75 15 0 -114c0,-8 6,-15 13,-16z"/>
    <path class="fil0" d="M411 474l49 -10c8,-1 14,4 14,12l0 173 -76 14 0 -173c0,-7 6,-15 13,-16z"/>
    <path class="fil0" d="M501 480l48 -10c8,-1 14,4 14,12l0 149 -76 15 0 -150c0,-7 6,-15 14,-16z"/>
    <path class="fil0" d="M590 373l48 -9c8,-2 14,3 14,11l0 240 -76 14 0 -239c0,-8 6,-15 14,-17z"/>
   </g>
   <path class="fil4" d="M302 680c17,2 61,-2 79,-4 73,-11 138,-42 189,-89 42,-39 76,-88 98,-144 10,-27 17,-53 18,-79 -3,7 -8,16 -15,25 -11,15 -25,29 -36,36 13,-3 19,-4 26,-8 -31,75 -70,126 -118,164 -65,51 -145,76 -241,99z"/>
   <path class="fil5" d="M406 281l0 5c-3,0 -5,0 -6,1 -1,1 -1,3 -1,5l0 16 20 0 0 -16c0,-2 0,-4 -1,-5 -1,-1 -3,-1 -5,-1l0 -5 28 0 0 5c-3,0 -4,0 -5,1 -1,1 -2,3 -2,5l0 38c0,3 1,5 2,5 1,1 2,2 5,2l0 4 -28 0 0 -4c2,0 4,-1 5,-2 1,0 1,-2 1,-5l0 -17 -20 0 0 17c0,3 0,5 1,5 1,1 3,2 6,2l0 4 -29 0 0 -4c3,0 5,-1 6,-2 1,0 1,-2 1,-5l0 -38c0,-2 0,-4 -1,-5 -1,-1 -3,-1 -6,-1l0 -5 29 0zm54 36l16 0 -7 -24 -9 24zm-17 24l0 -4c2,0 3,-1 4,-2 1,-1 3,-3 4,-6l18 -48 9 0 18 49c1,2 2,4 3,5 1,1 3,2 5,2l0 4 -29 0 0 -4c2,0 4,0 5,-1 1,0 2,-1 2,-3 0,0 0,-1 -1,-2 0,0 0,0 0,0l-3 -10 -19 0 -3 8 0 0c-1,2 -1,3 -1,4 0,1 0,2 1,3 1,0 3,1 5,1l0 4 -18 0zm63 -48c-1,-3 -3,-5 -4,-6 -1,-1 -3,-1 -4,-1l-1 0 0 -5 32 0 0 5c-3,0 -5,0 -6,1 -1,0 -1,1 -1,2 0,1 0,1 0,2 0,0 0,1 0,1l12 20 11 -18c0,-1 1,-1 1,-2 0,-1 0,-1 0,-2 0,-1 0,-2 -1,-3 -2,-1 -4,-1 -6,-1l0 -5 21 0 0 5 -1 0c-1,0 -2,0 -4,1 -1,1 -2,3 -5,7l-14 24 0 12c0,3 0,5 2,5 1,1 3,2 7,2l0 4 -33 0 0 -4c4,0 7,-1 8,-2 1,0 1,-2 1,-5l0 -12 -15 -25zm76 -1l0 38c0,3 1,5 2,6 1,1 3,1 6,1 6,0 10,-2 13,-6 2,-3 4,-10 4,-20 0,-9 -2,-16 -4,-20 -3,-4 -7,-5 -13,-5 -3,0 -5,0 -6,1 -1,1 -2,3 -2,5zm-22 49l0 -4c3,0 5,-1 6,-2 1,0 1,-2 1,-5l0 -38c0,-2 0,-4 -1,-5 -1,-1 -3,-1 -6,-1l0 -5 29 0c11,0 19,3 25,8 6,5 9,13 9,22 0,10 -3,17 -9,23 -6,5 -14,7 -25,7l-29 0z"/>
  </g>
 </g>
</svg>
