<?xml version="1.0" encoding="UTF-8"?>
<!DOCTYPE svg PUBLIC "-//W3C//DTD SVG 1.1//EN" "http://www.w3.org/Graphics/SVG/1.1/DTD/svg11.dtd">
<!-- Creator: CorelDRAW X7 -->
<svg xmlns="http://www.w3.org/2000/svg" xml:space="preserve" width="1000px" height="1000px" version="1.1" style="shape-rendering:geometricPrecision; text-rendering:geometricPrecision; image-rendering:optimizeQuality; fill-rule:evenodd; clip-rule:evenodd"
viewBox="0 0 1000 1000"
 xmlns:xlink="http://www.w3.org/1999/xlink">
 <defs>
  <style type="text/css">
   <![CDATA[
    .fil3 {fill:#031C36}
    .fil1 {fill:#052A4F}
    .fil2 {fill:#D1AA0C}
    .fil4 {fill:#F1C40F}
    .fil0 {fill:#FEFEFE}
    .fil5 {fill:#052A4F;fill-rule:nonzero}
   ]]>
  </style>
     <clipPath id="id0">
      <path d="M0 1l1000 0 0 999 -1000 0 0 -999z"/>
     </clipPath>
 </defs>
 <g id="Capa_x0020_1">
  <metadata id="CorelCorpID_0Corel-Layer"/>
  <g id="_1958492670448">
   <g>
    <g style="clip-path:url(#id0)">
     <image x="0" y="1" width="1000" height="1000" xlink:href="LogoHAYDE_Images\LogoHAYDE_ImgID1.png"/>
    </g>
   </g>
   <path class="fil0" d="M43 485l439 -441c8,-9 22,-9 31,0l438 441c9,8 9,22 0,31l-438 441c-9,8 -23,8 -31,0l-439 -441c-9,-9 -9,-23 0,-31zm83 0l356 -357c8,-9 22,-9 31,0l355 357c8,8 8,22 0,31l-355 357c-9,9 -23,9 -31,0l-356 -357c-8,-9 -8,-23 0,-31z"/>
   <path class="fil1" d="M126 485l356 -357c8,-9 22,-9 31,0l355 357c8,8 8,22 0,31l-355 357c-9,9 -23,9 -31,0l-356 -357c-8,-9 -8,-23 0,-31z"/>
   <path class="fil0" d="M497 280c121,0 220,98 220,220 0,122 -99,221 -220,221 -121,0 -219,-99 -219,-221 0,-122 98,-220 219,-220z"/>
   <path class="fil2" d="M363 635c13,2 46,-2 60,-4 55,-10 103,-35 141,-72 31,-30 55,-67 70,-110 7,-20 12,-40 12,-59 -2,5 -6,12 -10,19 -8,11 -19,22 -27,27 10,-2 14,-3 19,-6 -21,57 -50,96 -85,125 -48,41 -108,61 -180,80z"/>
   <g>
    <path class="fil3" d="M368 534l37 -7c6,-1 10,3 10,9l0 86 -57 11 0 -86c0,-6 5,-12 10,-13z"/>
    <path class="fil3" d="M436 477l36 -8c6,-1 11,3 11,9l0 131 -58 11 0 -131c0,-6 5,-11 11,-12z"/>
    <path class="fil3" d="M503 481l37 -7c5,-1 10,3 10,9l0 113 -57 11 0 -113c0,-6 4,-12 10,-13z"/>
    <path class="fil3" d="M570 400l37 -7c5,-1 10,3 10,9l0 181 -57 11 0 -181c0,-6 4,-12 10,-13z"/>
   </g>
   <g>
    <path class="fil1" d="M363 538l37 -7c5,-1 10,3 10,9l0 86 -57 11 0 -86c0,-6 4,-12 10,-13z"/>
    <path class="fil1" d="M430 481l37 -8c6,-1 10,3 10,9l0 131 -57 11 0 -131c0,-6 5,-11 10,-12z"/>
    <path class="fil1" d="M498 485l36 -7c6,-1 11,3 11,9l0 113 -58 11 0 -113c0,-6 5,-12 11,-13z"/>
    <path class="fil1" d="M565 404l37 -7c5,-1 10,3 10,9l0 181 -57 11 0 -181c0,-6 4,-12 10,-13z"/>
   </g>
   <path class="fil4" d="M348 637c12,2 46,-1 59,-3 56,-8 104,-32 143,-68 32,-29 57,-66 74,-109 7,-20 13,-40 14,-60 -3,6 -7,13 -12,20 -8,11 -19,22 -27,26 10,-1 14,-2 19,-5 -23,56 -53,95 -88,124 -49,39 -110,58 -182,75z"/>
   <path class="fil5" d="M426 335l0 3c-2,0 -3,1 -4,1 -1,1 -1,2 -1,4l0 12 15 0 0 -12c0,-2 0,-3 -1,-4 0,0 -2,-1 -4,-1l0 -3 22 0 0 3c-2,0 -4,0 -4,1 -1,1 -1,2 -1,4l0 29c0,2 0,3 1,4 0,0 2,1 4,1l0 3 -22 0 0 -3c2,0 4,-1 4,-1 1,-1 1,-2 1,-4l0 -13 -15 0 0 13c0,2 0,3 1,4 1,0 2,1 4,1l0 3 -22 0 0 -3c3,0 4,-1 5,-1 0,-1 1,-2 1,-4l0 -29c0,-2 -1,-3 -1,-4 -1,0 -2,-1 -5,-1l0 -3 22 0zm41 27l12 0 -5 -18 -7 18zm-13 18l0 -3c2,0 3,-1 3,-2 1,-1 2,-2 3,-4l14 -36 7 0 13 37c1,1 2,3 3,3 0,1 2,2 3,2l0 3 -22 0 0 -3c2,0 4,0 4,-1 1,0 1,-1 1,-2 0,0 0,-1 0,-2 0,0 0,0 0,0l-2 -7 -15 0 -2 6 0 0c0,1 -1,2 -1,3 0,1 1,1 1,2 1,0 2,1 4,1l0 3 -14 0zm48 -37c-1,-2 -2,-3 -3,-4 -1,-1 -2,-1 -4,-1l0 0 0 -3 24 0 0 3c-2,0 -3,0 -4,1 -1,0 -2,1 -2,2 0,0 1,0 1,1 0,0 0,0 0,1l9 15 8 -14c0,0 1,-1 1,-1 0,-1 0,-1 0,-2 0,-1 0,-2 -1,-2 -1,-1 -3,-1 -5,-1l0 -3 17 0 0 3 -1 0c-1,0 -2,0 -3,1 -1,1 -2,2 -4,5l-11 18 0 10c0,2 1,3 1,4 1,0 3,1 6,1l0 3 -25 0 0 -3c3,0 5,-1 6,-1 1,-1 1,-2 1,-4l0 -10 -11 -19zm57 0l0 29c0,2 1,3 1,4 1,1 3,1 5,1 5,0 8,-1 10,-4 2,-3 3,-8 3,-16 0,-7 -1,-12 -3,-15 -2,-3 -5,-4 -10,-4 -2,0 -4,0 -5,1 0,0 -1,2 -1,4zm-16 37l0 -3c2,0 3,-1 4,-1 1,-1 1,-2 1,-4l0 -29c0,-2 0,-3 -1,-4 -1,0 -2,-1 -4,-1l0 -3 21 0c9,0 15,2 19,6 5,3 7,9 7,16 0,8 -2,13 -7,17 -4,4 -10,6 -19,6l-21 0z"/>
  </g>
 </g>
</svg>
